<svg xmlns="http://www.w3.org/2000/svg" version="1.1" xmlns:xlink="http://www.w3.org/1999/xlink" width="1000" height="1000"><style>
    #light-icon {
      display: inline;
    }
    #dark-icon {
      display: none;
    }

    @media (prefers-color-scheme: dark) {
      #light-icon {
        display: none;
      }
      #dark-icon {
        display: inline;
      }
    }
  </style><g id="light-icon"><svg xmlns="http://www.w3.org/2000/svg" version="1.1" xmlns:xlink="http://www.w3.org/1999/xlink" width="1000" height="1000"><g><g transform="matrix(3.4722222222222223,0,0,3.4722222222222223,0,0)"><svg xmlns="http://www.w3.org/2000/svg" xmlns:xlink="http://www.w3.org/1999/xlink" id="Layer_1" data-name="Layer 1" viewBox="0 0 288 288" width="288" height="288"><defs><style>.cls-1{fill:none;}.cls-2{clip-path:url(#clip-path);}.cls-3{fill:#3ac2d7;}.cls-4{fill:#a2dadb;}.cls-5{fill:#035569;}</style><clipPath id="clip-path" transform="translate(0 0)"><rect class="cls-1" width="288" height="288"></rect></clipPath></defs><g class="cls-2"><path class="cls-3" d="M288,91h0V40.37L150.26,0V25.42l112.7,33v83.67h0c0,58.8-44.26,93.2-112.7,120.46V288C233.85,254.91,288,213.22,288,141.66h0Z" transform="translate(0 0)"></path><path class="cls-4" d="M137.74,0,0,40.37V141.65H0C0,213.22,54.15,254.91,137.74,288V262.58C69.3,235.32,25,200.92,25,142.12h0V58.45l112.7-33Z" transform="translate(0 0)"></path><path class="cls-4" d="M83.82,127.83q3.93-5.91,3.93-17V91.13q0-7.47,2-10.69c1.34-2.15,3.79-3.22,7.37-3.22H112.7V60.52H95.29q-15.08,0-20.85,6.78T68.67,87V112.7q0,7.13-2.18,10.87c-1.45,2.49-3.91,3.73-7.36,3.73h-9V144h9c3.45,0,5.91,1.25,7.36,3.74s2.18,6.17,2.18,11v25.57q0,12.87,5.77,19.65t20.85,6.78H112.7V194.09H97.13c-3.58,0-6-1.11-7.37-3.31s-2-5.74-2-10.61V160.52q0-11.13-3.93-17t-13-7.65q9-2.09,13-8" transform="translate(0 0)"></path><path class="cls-3" d="M204.18,127.83q-3.93-5.91-3.93-17V91.13q0-7.47-2-10.69c-1.34-2.15-3.79-3.22-7.37-3.22H175.3V60.52h17.41q15.07,0,20.85,6.78T219.33,87V112.7q0,7.13,2.18,10.87c1.45,2.49,3.91,3.73,7.36,3.73h9V144h-9c-3.45,0-5.91,1.25-7.36,3.74s-2.18,6.17-2.18,11v25.57q0,12.87-5.77,19.65t-20.85,6.78H175.3V194.09h15.57c3.58,0,6-1.11,7.37-3.31s2-5.74,2-10.61V160.52q0-11.13,3.93-17t13-7.65q-9-2.09-13-8" transform="translate(0 0)"></path></g><rect class="cls-5" x="112.7" y="123.13" width="62.61" height="25.04"></rect></svg></g></g></svg></g><g id="dark-icon"><svg xmlns="http://www.w3.org/2000/svg" version="1.1" xmlns:xlink="http://www.w3.org/1999/xlink" width="1000" height="1000"><g><g transform="matrix(3.4722222222222223,0,0,3.4722222222222223,0,0)"><svg xmlns="http://www.w3.org/2000/svg" xmlns:xlink="http://www.w3.org/1999/xlink" id="Layer_1" data-name="Layer 1" viewBox="0 0 288 288" width="288" height="288"><defs><style>.cls-1{fill:none;}.cls-2{clip-path:url(#clip-path);}.cls-3{fill:#3ac2d7;}.cls-4{fill:#a2dadb;}.cls-5{fill:#fff;}</style><clipPath id="clip-path" transform="translate(0 0)"><rect class="cls-1" width="288" height="288"></rect></clipPath></defs><g class="cls-2"><path class="cls-3" d="M288,91h0V40.37L150.26,0V25.42l112.7,33v83.67h0c0,58.8-44.26,93.2-112.7,120.46V288C233.85,254.91,288,213.22,288,141.66h0Z" transform="translate(0 0)"></path><path class="cls-4" d="M137.74,0,0,40.37V141.65H0C0,213.22,54.15,254.91,137.74,288V262.58C69.3,235.32,25,200.92,25,142.12h0V58.45l112.7-33Z" transform="translate(0 0)"></path><path class="cls-4" d="M83.82,127.83q3.93-5.91,3.93-17V91.13q0-7.47,2-10.69c1.34-2.15,3.79-3.22,7.37-3.22H112.7V60.52H95.29q-15.08,0-20.85,6.78T68.67,87V112.7q0,7.13-2.18,10.87c-1.45,2.49-3.91,3.73-7.36,3.73h-9V144h9c3.45,0,5.91,1.25,7.36,3.74s2.18,6.17,2.18,11v25.57q0,12.87,5.77,19.65t20.85,6.78H112.7V194.09H97.13c-3.58,0-6-1.11-7.37-3.31s-2-5.74-2-10.61V160.52q0-11.13-3.93-17t-13-7.65q9-2.09,13-8" transform="translate(0 0)"></path><path class="cls-3" d="M204.18,127.83q-3.93-5.91-3.93-17V91.13q0-7.47-2-10.69c-1.34-2.15-3.79-3.22-7.37-3.22H175.3V60.52h17.41q15.07,0,20.85,6.78T219.33,87V112.7q0,7.13,2.18,10.87c1.45,2.49,3.91,3.73,7.36,3.73h9V144h-9c-3.45,0-5.91,1.25-7.36,3.74s-2.18,6.17-2.18,11v25.57q0,12.87-5.77,19.65t-20.85,6.78H175.3V194.09h15.57c3.58,0,6-1.11,7.37-3.31s2-5.74,2-10.61V160.52q0-11.13,3.93-17t13-7.65q-9-2.09-13-8" transform="translate(0 0)"></path></g><rect class="cls-5" x="112.7" y="123.13" width="62.61" height="25.04"></rect></svg></g></g></svg></g></svg>