<svg id="Layer_1" data-name="Layer 1" xmlns="http://www.w3.org/2000/svg" xmlns:xlink="http://www.w3.org/1999/xlink" viewBox="0 0 288 63"><defs><style>.cls-1{fill:none;}.cls-2{clip-path:url(#clip-path);}.cls-3{fill:#a2dadb;}.cls-4{fill:#035569;}.cls-5{fill:#3ac2d7;}</style><clipPath id="clip-path" transform="translate(0 0)"><rect class="cls-1" width="288" height="63"/></clipPath></defs><g class="cls-2"><path class="cls-3" d="M288,27.71a7,7,0,0,0-1.2-.29q-.66-.11-1.32-.18c-.43,0-.84-.09-1.22-.11l-.89,0a17.93,17.93,0,0,0-3.74.34,21.86,21.86,0,0,0-3.12.89V41.79h3.85V31.09a10.42,10.42,0,0,1,1.58-.3c.52-.05,1.05-.07,1.59-.07l.84,0c.33,0,.67.06,1,.11l1,.16.89.19ZM263.12,33.2a4.43,4.43,0,0,1,.27-1.13,3.23,3.23,0,0,1,.55-1,2.5,2.5,0,0,1,.91-.68,3.14,3.14,0,0,1,1.28-.24,2.86,2.86,0,0,1,1.31.26,2.47,2.47,0,0,1,.87.69,2.84,2.84,0,0,1,.5,1A4.15,4.15,0,0,1,269,33.2Zm-3.38,4.72a6.07,6.07,0,0,0,1.6,2.32,6.92,6.92,0,0,0,2.51,1.41,10.77,10.77,0,0,0,3.34.48,12.88,12.88,0,0,0,2.52-.23,20.22,20.22,0,0,0,2.11-.57l-.53-3.22c-.48.16-1.06.33-1.75.49a9.8,9.8,0,0,1-2.19.24A5.28,5.28,0,0,1,264.3,38a2.55,2.55,0,0,1-1.18-2.22h9.47a4.92,4.92,0,0,0,.05-.65c0-.26,0-.52,0-.76A8.05,8.05,0,0,0,271,28.89,6.24,6.24,0,0,0,266.07,27a6.75,6.75,0,0,0-2.54.49A6.48,6.48,0,0,0,261.32,29a7.3,7.3,0,0,0-1.55,2.41,8.66,8.66,0,0,0-.59,3.34,8.38,8.38,0,0,0,.56,3.22m-3.82-10.54H245.08V30.5h6l-1.46,1.94c-.54.71-1.08,1.46-1.64,2.25s-1.12,1.59-1.68,2.41-1.08,1.61-1.55,2.39v2.3h11.46V38.66h-6.9c.5-.74,1.06-1.54,1.69-2.41s1.27-1.7,1.9-2.5,1.22-1.51,1.75-2.16,1-1.13,1.25-1.45ZM241.16,38.14a7.51,7.51,0,0,1-1.67.57,7.37,7.37,0,0,1-1.28.13,1.89,1.89,0,0,1-1.6-.62,3.16,3.16,0,0,1-.48-1.92V27.38h-7.86V30.5h4v5.31a12.63,12.63,0,0,0,.25,2.67,5.12,5.12,0,0,0,.85,2A3.89,3.89,0,0,0,235,41.7a6.52,6.52,0,0,0,2.5.43,9.65,9.65,0,0,0,4.13-1Zm-5.9-16.68a2.45,2.45,0,0,0-1.71-.65,2.42,2.42,0,0,0-1.69.65,2.28,2.28,0,0,0-.7,1.78,2.24,2.24,0,0,0,.7,1.74,2.42,2.42,0,0,0,1.69.65,2.45,2.45,0,0,0,1.71-.65,2.22,2.22,0,0,0,.72-1.74,2.26,2.26,0,0,0-.72-1.78m-19.19,15a9.46,9.46,0,0,0,.37,2.93,3.77,3.77,0,0,0,1.09,1.73,3.72,3.72,0,0,0,1.74.83,11.77,11.77,0,0,0,2.36.22,16.42,16.42,0,0,0,2.37-.19,9.75,9.75,0,0,0,2.29-.61l-.53-3.25c-.35.16-.68.29-1,.4a6.25,6.25,0,0,1-.87.23,8,8,0,0,1-.87.1c-.3,0-.63,0-1,0a4.16,4.16,0,0,1-.9-.09,1.3,1.3,0,0,1-.68-.37,1.8,1.8,0,0,1-.44-.76,4.56,4.56,0,0,1-.15-1.29V30.5H226V27.38h-6.12V23.14l-3.82.62v3.62h-3.33V30.5h3.33Zm-6,1.72a7.51,7.51,0,0,1-1.67.57,7.28,7.28,0,0,1-1.28.13,1.89,1.89,0,0,1-1.6-.62,3.16,3.16,0,0,1-.48-1.92V27.38h-7.86V30.5h4v5.31a12.63,12.63,0,0,0,.25,2.67,5.12,5.12,0,0,0,.85,2A3.89,3.89,0,0,0,204,41.7a6.52,6.52,0,0,0,2.5.43,9.65,9.65,0,0,0,4.13-1Zm-5.9-16.68a2.45,2.45,0,0,0-1.71-.65,2.42,2.42,0,0,0-1.69.65,2.32,2.32,0,0,0-.7,1.78,2.27,2.27,0,0,0,.7,1.74,2.42,2.42,0,0,0,1.69.65A2.45,2.45,0,0,0,204.2,25a2.22,2.22,0,0,0,.72-1.74,2.26,2.26,0,0,0-.72-1.78M182.52,41.79h3.82V30.47l.89-.09c.28,0,.56,0,.85,0a1.94,1.94,0,0,1,1.9.89,6.68,6.68,0,0,1,.46,2.91v7.64h3.82V33.66A11.73,11.73,0,0,0,194,31a5.4,5.4,0,0,0-.94-2.09,4.35,4.35,0,0,0-1.82-1.35,7.77,7.77,0,0,0-2.89-.47,21,21,0,0,0-3.28.24c-1,.17-1.84.34-2.53.53ZM169.79,27.21a12.47,12.47,0,0,0-2,.44l.53,3a8.68,8.68,0,0,1,1.63-.37,14.22,14.22,0,0,1,2.1-.15,3.19,3.19,0,0,1,2.36.72,2.53,2.53,0,0,1,.68,1.79v.46a13.06,13.06,0,0,0-2.64-.24,10.53,10.53,0,0,0-2.27.23,5.83,5.83,0,0,0-1.92.75,3.77,3.77,0,0,0-1.34,1.38,4.14,4.14,0,0,0-.5,2.11,5.15,5.15,0,0,0,.44,2.23,3.77,3.77,0,0,0,1.24,1.47,5.23,5.23,0,0,0,1.94.81,12.25,12.25,0,0,0,2.53.25,25.74,25.74,0,0,0,3.7-.25c1.1-.16,1.93-.31,2.48-.43V32.86a8.73,8.73,0,0,0-.31-2.43,4.31,4.31,0,0,0-1-1.84,4.77,4.77,0,0,0-1.91-1.17,9.49,9.49,0,0,0-3-.41,17,17,0,0,0-2.7.2m1.12,11.47a1.47,1.47,0,0,1-.75-1.4,1.44,1.44,0,0,1,.25-.89,1.66,1.66,0,0,1,.67-.52,3.68,3.68,0,0,1,1-.26,8.53,8.53,0,0,1,1.15-.08c.29,0,.61,0,1,0s.65.07.9.11V39a9.45,9.45,0,0,1-1,.07c-.39,0-.79,0-1.21,0a4,4,0,0,1-1.92-.41m-17-.08a13,13,0,0,1-2-.92l-1.12,3.07a13.45,13.45,0,0,0,2.14.93,11.71,11.71,0,0,0,3.82.51A8.23,8.23,0,0,0,162,40.73a5.06,5.06,0,0,0,1.75-4.12,5.18,5.18,0,0,0-1.87-4.31,7.16,7.16,0,0,0-1.81-1.11c-.65-.27-1.27-.52-1.87-.75-.4-.14-.8-.29-1.2-.46a5.6,5.6,0,0,1-1.09-.57,3.27,3.27,0,0,1-.79-.73,1.56,1.56,0,0,1-.31-1c0-1.45,1-2.17,3-2.17a7.25,7.25,0,0,1,2.19.3,10.12,10.12,0,0,1,1.73.74l1.12-2.92a12.33,12.33,0,0,0-2.23-.88,10.58,10.58,0,0,0-3.09-.4,7.2,7.2,0,0,0-4.83,1.5A5.19,5.19,0,0,0,151,28.05a4.62,4.62,0,0,0,.5,2.25,5,5,0,0,0,1.25,1.52,7.07,7.07,0,0,0,1.7,1c.62.27,1.22.51,1.8.71.43.16.87.34,1.3.54a7.7,7.7,0,0,1,1.18.64,3.58,3.58,0,0,1,.87.81,1.71,1.71,0,0,1,.34,1,2.82,2.82,0,0,1-.14.9,1.82,1.82,0,0,1-.51.8,2.55,2.55,0,0,1-1,.55,5.53,5.53,0,0,1-1.6.2,8.2,8.2,0,0,1-2.84-.43" transform="translate(0 0)"/><path class="cls-4" d="M137.25,41.76V21.28h-3.79v12.6c-.36-.79-.8-1.72-1.31-2.78s-1.07-2.15-1.67-3.27-1.23-2.26-1.86-3.39-1.28-2.19-1.91-3.16h-3.38V41.76h3.78V28.16q2,3.4,3.64,6.8t3.12,6.8Zm-29.67-2.27a7.24,7.24,0,0,0,11.28,0q2-2.7,2-8t-2-8a7.22,7.22,0,0,0-11.26,0q-2,2.7-2,8t2,8M110,28.72a9,9,0,0,1,.48-2.27,3.62,3.62,0,0,1,1-1.53,3,3,0,0,1,3.49,0,3.64,3.64,0,0,1,1,1.52,8.71,8.71,0,0,1,.48,2.26c.08.88.12,1.81.12,2.8s0,1.92-.12,2.78a9,9,0,0,1-.48,2.27,3.56,3.56,0,0,1-1,1.53,2.55,2.55,0,0,1-1.72.57,2.58,2.58,0,0,1-1.75-.57,3.64,3.64,0,0,1-1-1.52A8.71,8.71,0,0,1,110,34.3c-.08-.88-.12-1.81-.12-2.8s0-1.92.12-2.78m-17.57,9.6a13.55,13.55,0,0,1-2.21-1L89,40.63a12.37,12.37,0,0,0,6.55,1.56c2.61,0,4.56-.53,5.85-1.57a5.42,5.42,0,0,0,1.93-4.45,6.09,6.09,0,0,0-.58-2.8,5.79,5.79,0,0,0-1.49-1.85,7.4,7.4,0,0,0-2-1.19c-.71-.3-1.4-.57-2.06-.82-.43-.15-.87-.32-1.31-.49a6.73,6.73,0,0,1-1.2-.61,3.73,3.73,0,0,1-.87-.8,1.64,1.64,0,0,1-.34-1c0-1.57,1.11-2.35,3.34-2.35a8,8,0,0,1,2.41.33,10.53,10.53,0,0,1,1.89.8l1.23-3.15a13.49,13.49,0,0,0-2.44-1,12.2,12.2,0,0,0-3.39-.43,8,8,0,0,0-5.31,1.62,5.58,5.58,0,0,0-1.93,4.5,4.89,4.89,0,0,0,.55,2.44A5.33,5.33,0,0,0,91.23,31a8.22,8.22,0,0,0,1.86,1.1c.68.28,1.34.54,2,.76.48.17,1,.37,1.43.58a9.32,9.32,0,0,1,1.3.69,3.88,3.88,0,0,1,1,.88,1.8,1.8,0,0,1,.37,1.12,3.28,3.28,0,0,1-.15,1,1.91,1.91,0,0,1-.57.86,2.8,2.8,0,0,1-1.1.59,5.9,5.9,0,0,1-1.76.22,9.17,9.17,0,0,1-3.12-.46m-6.92-17H74.22v3.37h7.06v10a3.93,3.93,0,0,1-1,3.12,4,4,0,0,1-2.65.85,4.89,4.89,0,0,1-2.13-.5,17.62,17.62,0,0,1-1.9-1L72,40.37a9.06,9.06,0,0,0,2.42,1.29,10.54,10.54,0,0,0,3.59.53,9.45,9.45,0,0,0,3.48-.58A6.47,6.47,0,0,0,83.83,40a6,6,0,0,0,1.29-2.32,9.89,9.89,0,0,0,.39-2.81Z" transform="translate(0 0)"/><path class="cls-5" d="M63,19.91h0V8.83L32.87,0V5.56l24.65,7.22V31.09h0c0,12.86-9.68,20.39-24.65,26.35V63C51.16,55.76,63,46.64,63,31h0Z" transform="translate(0 0)"/><path class="cls-3" d="M30.13,0,0,8.83V31H0C0,46.64,11.84,55.76,30.13,63V57.44c-15-6-24.65-13.49-24.65-26.35h0V12.78L30.13,5.56Z" transform="translate(0 0)"/><path class="cls-3" d="M18.34,28a6.75,6.75,0,0,0,.86-3.73V19.94a4.56,4.56,0,0,1,.44-2.34,1.74,1.74,0,0,1,1.61-.71h3.4V13.24H20.84q-3.28,0-4.56,1.48A6.49,6.49,0,0,0,15,19v5.63A4.88,4.88,0,0,1,14.55,27a1.72,1.72,0,0,1-1.62.82H11V31.5h2a1.72,1.72,0,0,1,1.62.82A5,5,0,0,1,15,34.73v5.6a6.49,6.49,0,0,0,1.26,4.3c.85,1,2.37,1.48,4.56,1.48h3.81V42.46h-3.4a1.71,1.71,0,0,1-1.61-.73,4.55,4.55,0,0,1-.44-2.32v-4.3a6.73,6.73,0,0,0-.86-3.72,4.17,4.17,0,0,0-2.84-1.68A4.39,4.39,0,0,0,18.34,28" transform="translate(0 0)"/><path class="cls-5" d="M44.66,28a6.75,6.75,0,0,1-.86-3.73V19.94a4.56,4.56,0,0,0-.44-2.34,1.74,1.74,0,0,0-1.61-.71h-3.4V13.24h3.81q3.29,0,4.56,1.48A6.49,6.49,0,0,1,48,19v5.63A4.88,4.88,0,0,0,48.45,27a1.72,1.72,0,0,0,1.62.82h2V31.5h-2a1.72,1.72,0,0,0-1.62.82A5,5,0,0,0,48,34.73v5.6a6.49,6.49,0,0,1-1.26,4.3c-.85,1-2.37,1.48-4.56,1.48H38.35V42.46h3.4a1.71,1.71,0,0,0,1.61-.73,4.55,4.55,0,0,0,.44-2.32v-4.3a6.73,6.73,0,0,1,.86-3.72,4.17,4.17,0,0,1,2.84-1.68A4.39,4.39,0,0,1,44.66,28" transform="translate(0 0)"/></g><rect class="cls-4" x="24.65" y="26.94" width="13.7" height="5.48"/></svg>